<?xml version="1.0" encoding="UTF-8" standalone="no"?>
<svg width="240px" height="83px" viewBox="0 0 240 83" version="1.1" xmlns="http://www.w3.org/2000/svg" xmlns:xlink="http://www.w3.org/1999/xlink">
    <!-- Generator: Sketch 50.2 (55047) - http://www.bohemiancoding.com/sketch -->
    <title>logo</title>
    <desc>Created with Sketch.</desc>
    <defs>
        <polygon id="path-1" points="0.269940357 0.0289285054 23.6467284 0.0289285054 23.6467284 58.4149304 0.269940357 58.4149304"></polygon>
        <polygon id="path-3" points="0 0.212785166 11.9313814 0.212785166 11.9313814 5.66682732 0 5.66682732"></polygon>
        <polygon id="path-5" points="0.21916464 0.427470784 22.3861505 0.427470784 22.3861505 36.2181818 0.21916464 36.2181818"></polygon>
    </defs>
    <g id="Welcome" stroke="none" stroke-width="1" fill="none" fill-rule="evenodd">
        <g id="Desktop1920" transform="translate(-58.000000, -42.000000)">
            <g id="menu">
                <g id="logo" transform="translate(58.000000, 42.000000)">
                    <g id="Group-3" transform="translate(98.250000, 0.000000)">
                        <mask id="mask-2" fill="white">
                            <use xlink:href="#path-1"></use>
                        </mask>
                        <g id="Clip-2"></g>
                        <path d="M14.752702,29.0115502 C13.874498,29.8918745 11.9584163,30.977691 10.6629061,31.4909226 C9.36788571,32.0036554 8.12919184,32.1847079 7.38127347,32.1308411 C6.6333551,32.0769742 5.70715102,32.0655025 5.0611102,30.9352958 C4.41506939,29.805089 5.04004898,28.2070384 6.1176,27.1306985 C7.3651102,25.8847777 8.98633469,25.0757771 10.0756408,24.7371141 C11.227151,24.3785004 13.2710694,23.7320979 14.824702,24.6882349 C16.3597224,25.6329002 16.2882122,27.4728529 14.752702,29.0115502 M22.2411918,7.15706186 C22.2411918,7.15706186 22.240702,7.15606433 22.240702,7.15556556 C21.6730286,5.30713382 20.9319673,3.74150316 20.0415184,2.39981903 C19.5507429,2.13796618 19.0467429,1.85716017 18.499151,1.56837388 C16.0100082,0.254121957 13.1505796,0.280057858 10.3469878,0.0286791217 C10.6065796,0.138407935 10.8632327,0.256117026 11.1135184,0.385297766 C7.04331429,0.658123498 3.63678367,3.09709576 0.844946939,6.05129468 C-0.958481633,7.96007727 1.89506939,10.8733773 3.70192653,8.96060455 C6.02845714,6.49918775 8.9020898,4.13054168 12.4908245,4.5410272 C14.6189878,4.78442565 16.1133551,6.00341302 17.4490286,7.47926556 C19.3293551,11.7322546 19.6011918,16.9094596 17.5494367,21.2193081 C17.5494367,21.2193081 15.667151,20.4576904 11.9466612,20.6088169 C8.52200816,20.7484717 4.44298776,22.4547548 2.01115102,26.0089708 C0.793028571,27.790069 0.60004898,30.0170651 0.808702041,31.5782069 C1.01686531,33.1393486 1.8578449,34.8735626 3.83906939,35.8017686 C5.4578449,36.5603938 8.33343673,36.5369517 10.2196408,36.1683626 C13.8416816,35.460113 16.6477224,32.870513 16.6477224,32.870513 C16.6477224,32.870513 14.6444571,50.2650238 14.1272327,57.2103589 C13.9690286,59.3236361 15.4349878,58.2482938 15.8082122,57.0766893 C17.4073959,52.061085 18.9365388,44.7506522 19.555151,42.5436067 C20.1737633,40.33706 23.9451918,25.0578215 23.6278041,16.4321392 C23.4926204,12.758219 23.0229061,9.70077527 22.2411918,7.15706186" id="Fill-1" fill="#D79797" mask="url(#mask-2)"></path>
                    </g>
                    <path d="M80.2285767,33.2346133 C77.6932674,35.3585435 74.988084,35.893855 71.9337971,35.2101207 C68.8795101,34.5258916 64.8640804,30.5343078 64.8640804,30.5343078 C64.8675272,16.9056319 69.0400288,9.64726233 79.4033333,9.70811567 C83.4064532,9.73136858 85.1357223,12.6978456 85.3961959,17.6160823 C85.758594,24.4549101 84.575384,29.593802 80.2285767,33.2346133 M87.1490996,7.73805041 C83.2355944,3.41152587 77.9241977,3.10132223 73.4050544,4.50886509 C70.7402469,5.33854852 68.2600851,7.7286503 67.3683692,8.59939738 C66.6361873,9.31331103 64.8443849,11.977995 64.8443849,11.977995 C64.8443849,11.977995 64.7030693,7.8805363 64.385971,5.51962434 C64.1486397,3.86520489 63.0840954,2.96427851 62.0471248,3.02067918 C61.3282373,3.0592691 60.6684365,3.38332554 60.281419,4.33224196 C59.418754,6.44627733 60.0376866,15.3382871 59.9091732,20.4301785 C59.7806597,25.52207 59.2695603,39.2026939 59.2508495,40.2307692 C59.202103,42.9503696 61.263242,42.9078217 62.3376341,40.2307692 C62.7152962,39.2887791 63.736018,35.9161185 63.736018,35.9161185 C63.736018,35.9161185 66.7706094,41.2890237 75.0200893,41.5180896 C78.1989506,41.6061538 83.181924,40.0635461 86.5523245,35.0483398 C89.9222326,30.0331335 90.7583086,24.1313484 90.749938,19.2764387 C90.7420598,14.4210342 89.0723698,9.86395961 87.1490996,7.73805041" id="Fill-4" fill="#D79797"></path>
                    <path d="M148.832299,13.5572599 C148.064587,15.0862751 140.788576,30.1324772 140.788576,30.1324772 C140.788576,30.1324772 137.604889,25.3123682 136.798743,23.9931596 C135.992597,22.6744459 132.895143,16.8364779 132.490099,16.2308098 C132.085055,15.6251416 131.437082,14.3044486 129.912993,14.8497478 C128.738759,15.2693611 128.961484,16.5969817 129.15563,17.419384 C129.350268,18.2422812 134.642943,30.0676549 134.642943,30.0676549 L137.593556,35.9932072 C137.593556,35.9932072 130.935951,51.2754417 130.549139,51.9558287 C130.162327,52.6367105 129.30592,54.4418391 129.752355,54.9386454 C130.03224,55.2498915 131.249343,55.0004987 131.743083,54.6961802 C132.744853,54.0781413 133.681086,53.5605524 136.051235,49.9879021 C140.563387,43.1855164 146.032961,29.4862332 152.018941,16.956226 C154.859178,11.0108806 150.826968,9.58281015 148.832299,13.5572599" id="Fill-6" fill="#D79797"></path>
                    <path d="M145.176614,67.7109943 C144.786458,67.3255638 143.924395,67.0316221 143.239542,67.2059943 C142.987924,67.2698553 142.890997,67.3631557 142.890997,67.3631557 C142.285448,67.2902364 141.627519,67.5162409 141.187921,67.8654382 C140.254387,68.6068597 139.951368,69.5172184 140.582862,70.2033843 C140.908399,70.5566578 141.706334,71.0308596 143.079956,70.9072138 C144.453577,70.7831152 145.019964,69.8559986 145.348439,69.0393933 C145.632856,68.3305817 145.483549,68.0139942 145.176614,67.7109943" id="Fill-8" fill="#D79797"></path>
                    <path d="M123.811406,68.6820065 C110.201124,69.1066854 99.3936251,67.734151 85.1270181,66.1220541 C76.2319589,65.1172777 67.3875377,62.8968704 55.1641444,59.3207574 C49.7060696,57.7235095 47.6245088,56.4103707 47.6245088,56.4103707 C47.6245088,56.4103707 47.4878357,53.362879 45.9018378,51.4815219 C42.870448,47.8841255 39.5229403,45.6241211 35.5805604,42.6553286 C32.6420887,40.4418508 31.5255973,38.1699673 30.8230582,36.4321496 C30.3009473,35.1397993 30.1229773,34.2483696 30.540371,32.3640427 C30.7788115,31.2889815 31.6411303,29.7649881 33.2595758,28.4587788 C33.9994788,27.8618526 34.3613183,27.5069636 34.1209113,26.8932086 C33.8337995,26.1576924 32.7423812,25.9834652 32.0457417,26.0874076 C31.6126158,26.1522478 29.5408875,26.5061469 28.0487909,27.4728111 C26.7371224,28.3221688 24.9962611,29.7164817 23.6772181,32.3610729 C22.5253294,34.6705737 22.6649523,36.7756544 22.6649523,36.7756544 C22.6649523,36.7756544 20.9481808,36.1302217 19.5721088,34.4122026 C17.8646783,32.2798988 17.3907471,30.1530397 17.0048176,28.4919414 C16.6773922,27.0837696 16.4315772,25.4449447 15.3966964,25.6765877 C14.0009592,26.0918623 12.8770933,28.6557744 12.654385,31.3018505 C12.5359022,34.830447 13.7772676,37.7393488 15.6523439,41.1333151 C14.2929873,41.5005782 12.3692397,41.148164 8.4715981,44.2486168 C6.07047785,46.1586819 4.59853803,49.0542197 4.52626844,49.9941558 C4.45449048,50.9360718 4.40286935,52.613009 6.18896064,51.5557664 C8.56304125,50.1510594 12.1794705,48.7993134 14.6322119,49.0062082 C18.2987874,49.3155606 24.0710137,51.9007561 26.2096036,53.5460156 C28.3477019,55.191275 33.2497432,60.350282 35.9360088,61.2521059 C39.8931376,62.5810836 43.1669008,62.5112937 45.9529673,60.6180574 C46.0739082,60.6284516 52.1568445,62.9374574 54.3500053,63.6269419 C64.9441373,66.9585428 75.0382816,69.5937297 85.5557193,70.5054529 C98.99393,71.6701026 110.90858,72.2586144 124.125065,70.8910296 C130.798449,70.2005552 130.550176,68.4716469 123.811406,68.6820065" id="Fill-10" fill="#D79797"></path>
                    <g id="Group-14" transform="translate(0.000000, 36.218182)">
                        <mask id="mask-4" fill="white">
                            <use xlink:href="#path-3"></use>
                        </mask>
                        <g id="Clip-13"></g>
                        <path d="M1.913424,1.62257455 C0.176784,2.47470788 -1.380816,5.08543515 2.001744,4.22223515 C3.391344,3.86810182 5.342544,4.47576242 5.934864,4.73432 C6.527184,4.99237455 8.296464,6.11765333 10.377744,5.46723515 C11.565744,5.09599879 11.889744,4.28058667 11.928624,3.26396242 C11.982384,1.86252 11.244144,1.04107152 10.229424,0.622047273 C8.049744,-0.27938303 4.360944,0.421841212 1.913424,1.62257455" id="Fill-12" fill="#D79797" mask="url(#mask-4)"></path>
                    </g>
                    <path d="M164.821029,5.55143522 C164.821029,5.55143522 165.261459,2.31268061 167.657856,2.26431153 C170.053754,2.21594244 170.25,4.77802339 170.25,6.22810888 C170.25,7.67868794 169.22283,17.9753808 169.22283,17.9753808 C169.22283,17.9753808 168.293533,26.7247564 165.701389,36.6349902 C165.701389,36.6349902 164.772092,40.6960193 163.158182,40.7438948 C161.544271,40.7922639 161.005968,39.7291311 161.348525,35.6685956 C161.690582,31.6075665 164.087479,8.69345165 164.821029,5.55143522" id="Fill-15" fill="#D79797"></path>
                    <path d="M180.204074,6.79727712 C180.204074,6.79727712 182.172065,4.92140618 184.849581,7.06036273 C187.527592,9.19982327 188.140273,14.2674972 186.850183,15.5511735 C185.5596,16.8343459 182.075222,13.5432558 181.397814,12.9183015 C180.720406,12.2928432 177.75236,9.06777647 180.204074,6.79727712" id="Fill-17" fill="#D79797"></path>
                    <path d="M179.297633,20.9844246 C179.297633,20.9844246 179.798279,17.8646471 182.770058,18.1244627 C185.741836,18.3842782 186.211342,21.8295718 185.929639,23.5193683 C185.647935,25.2096625 184.740544,31.9046413 183.520309,34.6018453 C182.300552,37.2995469 181.768766,37.6569178 181.049176,37.7216228 C180.329587,37.7868255 178.609185,37.3318995 178.515284,34.0170114 C178.421862,30.7021234 178.765846,24.1370524 179.297633,20.9844246" id="Fill-19" fill="#D79797"></path>
                    <path d="M198.674465,5.66290373 C198.674465,5.66290373 199.52648,1.82562242 202.345613,2.30509892 C205.16575,2.78506519 203.525984,9.82048905 203.525984,9.82048905 L199.428074,28.8800474 C199.428074,28.8800474 198.313475,33.3251227 196.477901,33.1972949 C194.641825,33.0694672 195.035449,28.2085844 195.035449,28.2085844 C195.035449,28.2085844 196.084277,13.8497569 198.674465,5.66290373" id="Fill-21" fill="#D79797"></path>
                    <path d="M222.716858,61.3612433 C218.483704,67.3339294 215.299745,66.9175974 214.031343,66.2891533 C213.479344,66.0163671 212.030596,65.3711512 214.470252,61.5546107 C216.910407,57.737577 227.157262,51.0220047 227.157262,51.0220047 C227.157262,51.0220047 226.620707,55.853231 222.716858,61.3612433 M239.014779,41.7453006 C238.428903,40.2476895 232.915389,43.5329628 232.915389,43.5329628 C232.915389,43.5329628 238.108564,21.2601909 239.035703,17.0080804 C239.962344,12.7564632 240.938306,9.51953173 238.254535,9.08445499 C235.571262,8.64987154 234.888238,13.0948562 234.888238,13.0948562 C223.713745,27.0094192 223.030721,25.7046823 220.20048,25.8497079 C217.370738,25.9947334 218.883255,17.9260825 218.883255,16.1384202 C218.883255,14.350758 217.695561,14.3029094 217.695561,14.3029094 C217.695561,14.3029094 218.3467,11.4522195 216.101838,11.3555358 C213.857473,11.2588521 211.888112,13.8194908 211.789968,15.3171019 C211.69282,16.8152063 211.661434,29.9562995 219.176193,30.7776178 C226.690454,31.5994295 234.155892,20.6800886 234.155892,20.6800886 C233.570514,28.4586884 227.499023,46.5770201 227.499023,46.5770201 C227.499023,46.5770201 215.982769,54.3072781 212.274711,58.3655278 C208.566653,62.4242709 208.523808,67.0927134 210.762194,69.2365268 C213.738903,72.0867234 220.08191,71.7488237 225.40063,64.9849096 C231.031717,57.8234084 232.036575,47.7367314 232.036575,47.7367314 C232.036575,47.7367314 239.600157,43.2434049 239.014779,41.7453006" id="Fill-23" fill="#D79797"></path>
                    <path d="M184.585796,68.7235426 C182.859071,68.4389553 183.34626,63.5707492 183.34626,62.4046968 C183.34626,61.2386443 183.014933,59.3482794 181.629338,59.2853176 C181.310263,59.2707104 180.99462,59.9093949 180.751516,60.9011691 C173.873044,69.9475199 173.449573,69.0992986 171.704223,69.1939931 C169.956912,69.288184 170.891099,64.0265926 170.891099,62.8605402 C170.891099,61.6944877 170.559771,59.8041228 169.174176,59.741161 C167.788581,59.6781992 166.572571,61.347946 166.512285,62.3251131 C166.451999,63.3017764 166.432884,71.872136 171.071466,72.4075632 C175.710538,72.943494 180.319222,65.822263 180.319222,65.822263 L180.333926,65.7990931 C180.46283,68.7724009 181.308303,71.6953393 183.527117,71.9512161 C188.16619,72.4871469 192.941518,68.1322054 195.613702,64.5030875 C202.263774,55.4703365 201.740316,52.8551553 201.740316,52.8551553 C200.95905,52.2497147 195.518127,59.2117782 191.570136,64.0623549 C188.751894,67.5252537 186.485047,69.0363368 184.585796,68.7235426" id="Fill-25" fill="#D79797"></path>
                    <g id="Group-29" transform="translate(145.500000, 46.781818)">
                        <mask id="mask-6" fill="white">
                            <use xlink:href="#path-5"></use>
                        </mask>
                        <g id="Clip-28"></g>
                        <path d="M8.7754,13.2102097 L2.1514,13.9097664 C2.1514,13.9097664 0.2499,14.1846276 0.2194,13.0350725 C0.1889,11.8855173 3.1329,11.4856289 3.1329,11.4856289 C3.1329,11.4856289 9.3069,10.8024448 9.5214,8.55344458 C9.7364,6.30444433 9.7869,3.14105903 9.7869,3.14105903 C9.7869,3.14105903 10.0019,0.617197509 11.6579,0.442556413 C13.3139,0.267419178 13.8964,1.64172553 13.8354,3.29089315 C13.7739,4.94055691 13.1609,9.76154421 13.1609,9.76154421 L20.4589,9.36165579 C20.4589,9.36165579 22.1764,9.18701469 22.3604,9.96148842 C22.5444,10.7359621 21.7164,11.1611537 20.7044,11.4107118 C19.6924,11.6607661 14.2954,12.6103771 14.2954,12.6103771 C14.2954,12.6103771 12.7619,12.5855701 12.3634,15.1094316 C11.9644,17.6332932 9.8464,30.4838017 8.8649,33.2830207 C7.8839,36.0822396 7.8019,36.1482262 6.9024,36.215205 C6.0029,36.2816877 6.0844,35.2819666 6.7389,33.6829091 C7.3929,32.0833554 8.5604,16.3339039 8.7754,13.2102097" id="Fill-27" fill="#D79797" mask="url(#mask-6)"></path>
                    </g>
                </g>
            </g>
        </g>
    </g>
</svg>